<?xml version="1.0" standalone="no"?>
<!DOCTYPE svg PUBLIC "-//W3C//DTD SVG 20010904//EN"
 "http://www.w3.org/TR/2001/REC-SVG-20010904/DTD/svg10.dtd">
<svg version="1.0" xmlns="http://www.w3.org/2000/svg"
 width="200.000000pt" height="200.000000pt" viewBox="0 0 200.000000 200.000000"
 preserveAspectRatio="xMidYMid meet">

<g transform="translate(0.000000,200.000000) scale(0.100000,-0.100000)"
fill="#000000" stroke="none">
<path d="M569 1413 c-41 -106 -309 -841 -309 -847 0 -3 24 -6 54 -6 l54 0 43
125 44 125 180 0 180 0 45 -125 44 -125 53 0 c29 0 53 3 53 8 0 4 -72 201
-159 437 l-158 430 -56 3 c-54 3 -58 2 -68 -25z m145 -316 c36 -104 66 -190
66 -193 0 -2 -65 -4 -145 -4 -80 0 -145 1 -145 3 0 2 29 86 65 188 36 101 68
190 71 198 9 25 20 0 88 -192z"/>
<path d="M1170 1000 l0 -440 50 0 50 0 0 440 0 440 -50 0 -50 0 0 -440z"/>
<path d="M1480 1000 l0 -440 50 0 50 0 0 440 0 440 -50 0 -50 0 0 -440z"/>
</g>
</svg>
