<?xml version="1.0" encoding="UTF-8"?>
<svg xmlns="http://www.w3.org/2000/svg" xmlns:xlink="http://www.w3.org/1999/xlink" width="595.2756pt" height="841.8898pt" viewBox="0 0 595.2756 841.8898" version="1.1">
<g id="surface1">
<path style=" stroke:none;fill-rule:evenodd;fill:rgb(0%,0%,0%);fill-opacity:1;" d="M 480.027344 229.925781 C 501.359375 229.925781 522.691406 229.925781 544.027344 229.925781 C 544.027344 339.261719 544.027344 431.59375 544.027344 540.925781 C 545.191406 565.09375 549.859375 581.261719 589.527344 592.925781 C 567.691406 592.925781 545.859375 592.925781 524.027344 592.925781 C 475.175781 592.925781 482.15625 539.375 480.027344 531.429688 C 480.027344 430.929688 480.027344 330.425781 480.027344 229.925781 "/>
<path style=" stroke:none;fill-rule:evenodd;fill:rgb(0%,0%,0%);fill-opacity:1;" d="M 354.027344 229.925781 C 375.359375 229.925781 396.691406 229.925781 418.027344 229.925781 C 418.027344 339.261719 418.027344 431.59375 418.027344 540.925781 C 419.191406 565.09375 423.859375 581.261719 463.527344 592.925781 C 441.691406 592.925781 419.859375 592.925781 398.027344 592.925781 C 349.175781 592.925781 356.15625 539.375 354.027344 531.429688 C 354.027344 430.929688 354.027344 330.425781 354.027344 229.925781 "/>
<path style=" stroke:none;fill-rule:evenodd;fill:rgb(0%,0%,0%);fill-opacity:1;" d="M 334.03125 592.925781 C 308.363281 592.925781 282.695313 592.925781 257.03125 592.925781 L 197.898438 461.191406 C 137.933594 533.933594 126.648438 588.253906 5.34375 611.992188 C 37.011719 596.824219 58.222656 576.449219 73.34375 559.992188 C 80.6875 552.003906 54.359375 552.5 57.308594 507.242188 C 60.253906 461.984375 100.535156 446.832031 96.34375 371.492188 C 156.511719 421.910156 142.589844 483.960938 146.84375 483.242188 C 156.558594 481.601563 198.121094 444.0625 217.171875 432.65625 C 233.484375 422.882813 250.121094 452.0625 257.472656 428.742188 C 238.765625 428.285156 239.398438 414.273438 219.847656 415.867188 C 204.726563 417.101563 198.851563 431.964844 188.339844 439.902344 L 147.109375 348.046875 C 128.777344 313.421875 146.441406 265.296875 174.609375 235.421875 C 228.75 356.425781 279.890625 471.925781 334.03125 592.925781 "/>
</g>
</svg>
